<svg width="133" height="29" viewBox="0 0 133 29" fill="none" xmlns="http://www.w3.org/2000/svg">
<path d="M52.2873 12.7361V22.3102H48.3197V13.5969C48.3197 11.5993 47.5693 10.49 45.4613 10.49C43.2127 10.49 42.0206 11.795 42.0206 14.292V22.3127H38.053V7.04939H42.0206V9.12983C43.1299 7.5764 44.6557 6.71561 46.7663 6.71561C50.2069 6.71561 52.2873 8.99181 52.2873 12.7361Z" fill="#09114C"/>
<path d="M71.7946 7.04939L71.767 22.3127H67.7993V20.2598C66.7453 21.7029 65.1643 22.6465 63.0261 22.6465C59.0308 22.6465 56.062 19.3714 56.062 14.6835C56.062 9.99564 59.0861 6.72064 62.9985 6.72064C65.1618 6.72064 66.7729 7.71945 67.8269 9.19007V7.05441H71.7946V7.04939ZM67.8269 14.681C67.8269 12.184 66.1355 10.49 63.9145 10.49C61.6935 10.49 60.0573 12.184 60.0573 14.681C60.0573 17.1781 61.7211 18.872 63.9145 18.872C66.1079 18.872 67.8269 17.2082 67.8269 14.681Z" fill="#09114C"/>
<path d="M76.0684 7.04942H80.036V22.3127H76.0684V7.04942Z" fill="#09114C"/>
<path d="M96.3533 21.4218C95.5201 21.9764 93.6329 22.6439 91.8034 22.6439C88.7518 22.6439 86.0866 20.8119 86.0866 16.4277V10.7937H83.3662V7.04688H86.0866V3.74677L90.0543 2.88599V7.04939H95.7159V10.7962H90.0543V16.2069C90.0543 18.0113 90.915 18.9549 92.4961 18.9549C93.3845 18.9549 94.4385 18.6487 95.6883 18.2045L96.3533 21.4243V21.4218Z" fill="#09114C"/>
<path d="M114.028 7.04942V22.3127H110.061V20.2047C108.951 21.7581 107.453 22.6465 105.343 22.6465C101.985 22.6465 99.9043 20.3427 99.9043 16.626V7.04942H103.872V15.7627C103.872 17.7603 104.622 18.8696 106.675 18.8696C108.869 18.8696 110.061 17.5646 110.061 15.0675V7.04942H114.028Z" fill="#09114C"/>
<path d="M117.72 17.2885H121.743C122.049 18.5107 122.965 19.3413 125.434 19.3413C127.184 19.3413 128.014 18.9247 128.014 18.0916C128.014 17.0651 126.822 16.9823 124.518 16.4277C120.189 15.4013 118.413 14.4301 118.413 11.7925C118.413 8.5727 121.078 6.7131 125.101 6.7131C129.347 6.7131 131.427 8.76594 131.954 11.5968H127.931C127.625 10.6255 126.795 10.0433 124.963 10.0433C123.382 10.0433 122.41 10.4875 122.41 11.3207C122.41 12.0409 123.103 12.1815 125.324 12.6809C129.681 13.6797 132.122 14.5129 132.122 17.5645C132.122 20.9776 129.098 22.6439 125.324 22.6439C121.246 22.6439 118.275 20.6463 117.72 17.2885Z" fill="#09114C"/>
<path d="M80.5353 2.3314C80.5353 3.6916 79.5089 4.69041 78.0659 4.69041C76.6229 4.69041 75.5964 3.6916 75.5964 2.3314C75.5964 0.971209 76.6781 0 78.0659 0C79.4537 0 80.5353 0.971209 80.5353 2.3314Z" fill="#09114C"/>
<g clip-path="url(#clip0_311_1164)">
<path d="M18.8313 28.5618C16.8632 28.5618 14.9818 27.7179 13.6755 26.244L13.5599 26.1053L0.462377 8.75075C-0.300588 7.73925 -0.0982867 6.30291 0.910329 5.53995C1.92184 4.77698 3.35817 4.97928 4.12114 5.9879L17.1551 23.2558C17.5886 23.7153 18.1955 23.9754 18.8284 23.9754C20.1 23.9754 21.1347 22.9407 21.1347 21.6691V5.49659C21.1347 5.18736 20.8832 4.93593 20.574 4.93593H18.2822C17.0164 4.93593 15.9904 3.90998 15.9904 2.64415C15.9904 1.37832 17.0193 0.352364 18.2851 0.352364H20.5769C23.4149 0.352364 25.7211 2.6586 25.7211 5.49659V21.6691C25.7211 25.4695 22.6288 28.5589 18.8313 28.5589V28.5618Z" fill="url(#paint0_linear_311_1164)"/>
<path d="M21.1376 14.7013L12.1612 2.81177L12.0456 2.67305C10.7393 1.19625 8.8608 0.352364 6.8898 0.352364C3.09232 0.352364 0 3.44468 0 7.24217V23.4176C0 26.2527 2.30623 28.5618 5.14423 28.5618H7.43602C8.70184 28.5618 9.7278 27.5359 9.7278 26.27C9.7278 25.0042 8.70184 23.9783 7.43602 23.9783H5.14423C4.835 23.9783 4.58357 23.7268 4.58357 23.4176V7.24217C4.58357 5.97056 5.6182 4.93593 6.8898 4.93593C7.52272 4.93593 8.12962 5.19892 8.56312 5.65555L21.0682 22.2211C21.1116 22.0448 21.1347 21.8599 21.1347 21.6691V14.7013H21.1376Z" fill="url(#paint1_linear_311_1164)"/>
</g>
<defs>
<linearGradient id="paint0_linear_311_1164" x1="4.64187" y1="14.4556" x2="25.724" y2="14.4556" gradientUnits="userSpaceOnUse">
<stop stop-color="#6B3DE9"/>
<stop offset="1" stop-color="#00B3FF"/>
</linearGradient>
<linearGradient id="paint1_linear_311_1164" x1="-3.27664" y1="14.4556" x2="37.5449" y2="14.4556" gradientUnits="userSpaceOnUse">
<stop stop-color="#7A3FFF"/>
<stop offset="1" stop-color="#2E3192"/>
</linearGradient>
<clipPath id="clip0_311_1164">
<rect width="25.7212" height="28.2095" fill="white" transform="translate(0 0.352364)"/>
</clipPath>
</defs>
</svg>
